<svg width="48" height="48" viewBox="0 0 48 48" fill="none" xmlns="http://www.w3.org/2000/svg">
<path fill-rule="evenodd" clip-rule="evenodd" d="M20.2278 0.842105C20.164 0.842105 20.1049 0.875284 20.0717 0.929674L12.6997 13.005C11.7257 14.6005 10.4838 16.016 9.02864 17.1895C5.74883 19.8343 3.84211 23.8213 3.84211 28.0347V38.9966C3.84211 43.5039 7.49606 47.1579 12.0034 47.1579H35.5812C37.2239 47.1579 38.5556 45.8262 38.5556 44.1836C38.5556 42.5409 37.2239 41.2093 35.5812 41.2093H27.5629C27.2262 41.2093 26.9532 40.9363 26.9532 40.5996C26.9532 40.2629 27.2262 39.9899 27.5629 39.9899H38.5754C40.2181 39.9899 41.5497 38.6582 41.5497 37.0156C41.5497 35.3729 40.2181 34.0413 38.5754 34.0413H29.8085C29.4718 34.0413 29.1988 33.7683 29.1988 33.4316C29.1988 33.0949 29.4718 32.8219 29.8085 32.8219H40.2581C42.005 32.8219 43.4211 31.4058 43.4211 29.6589C43.4211 27.9121 42.005 26.496 40.2581 26.496H29.8085C29.4718 26.496 29.1988 26.223 29.1988 25.8863C29.1988 25.5496 29.4718 25.2766 29.8085 25.2766H38.0095C39.9647 25.2766 41.5497 23.6916 41.5497 21.7364C41.5497 19.7812 39.9647 18.1962 38.0095 18.1962H22.0375C21.2463 18.1962 20.6932 17.4134 20.9574 16.6676L22.2781 12.9402C22.4092 12.57 22.5112 12.19 22.583 11.8039L23.8184 5.16231C24.2363 2.91614 22.5125 0.842105 20.2278 0.842105ZM19.3529 0.490878C19.5391 0.185985 19.8705 0 20.2278 0C23.0392 0 25.1605 2.55224 24.6464 5.31631L23.4109 11.9579C23.3311 12.3873 23.2177 12.8097 23.0718 13.2214L21.7512 16.9489C21.6811 17.1466 21.8278 17.3541 22.0375 17.3541H38.0095C40.4298 17.3541 42.3918 19.3161 42.3918 21.7364C42.3918 23.4497 41.4087 24.9333 39.9758 25.6539H40.2581C42.47 25.6539 44.2632 27.447 44.2632 29.6589C44.2632 31.8241 42.5451 33.588 40.3979 33.6616C41.5857 34.3084 42.3918 35.5679 42.3918 37.0156C42.3918 39.1233 40.6831 40.832 38.5754 40.832H37.4081C38.5936 41.4795 39.3977 42.7377 39.3977 44.1836C39.3977 46.2913 37.689 48 35.5812 48H12.0034C7.03098 48 3 43.969 3 38.9966V28.0347C3 23.5667 5.02198 19.3386 8.50003 16.5339C9.87979 15.4213 11.0574 14.0791 11.9809 12.5662L19.3529 0.490878Z" fill="#FFEBB7"/>
</svg>
