<svg width="48" height="48" viewBox="0 0 48 48" fill="none" xmlns="http://www.w3.org/2000/svg">
<path fill-rule="evenodd" clip-rule="evenodd" d="M16.9872 2H30.351V22.6228H27.5322V26.3772H39.3395L47 47H1L8.20993 26.3772H20.0229V22.6228H16.9872V2ZM20.8103 22.6228V24.1121H26.7447V22.6228H20.8103ZM26.7447 24.8879H20.8103V26.6246L23.876 30.2466L26.7447 26.6315V24.8879ZM27.3304 27.1531L24.2797 30.9976V36.5164H29.9573C30.1747 36.5164 30.351 36.6901 30.351 36.9043C30.351 37.1186 30.1747 37.2923 29.9573 37.2923H12.0393L10.7489 41.6939H37.4189L33.49 30.996C33.4161 30.7945 33.5218 30.5721 33.7263 30.4992C33.9308 30.4263 34.1565 30.5305 34.2305 30.732L38.5413 42.4697H9.70185L11.4471 36.5164H23.4922V31.0045L20.2323 27.1531H8.77154L2.10411 46.2241H45.8733L38.7891 27.1531H27.3304ZM17.7746 2.77586V21.8469H29.5635V2.77586H17.7746ZM20.087 33.2405C20.2059 33.0611 20.4499 33.0107 20.6319 33.1279L22.475 34.3144C22.6571 34.4316 22.7082 34.672 22.5893 34.8514C22.4703 35.0307 22.2264 35.0811 22.0443 34.964L20.2012 33.7774C20.0192 33.6603 19.968 33.4199 20.087 33.2405ZM27.4469 33.2116C27.582 33.3794 27.5535 33.6234 27.3831 33.7566L25.8653 34.9431C25.695 35.0763 25.4473 35.0481 25.3122 34.8803C25.177 34.7125 25.2055 34.4685 25.3759 34.3353L26.8937 33.1488C27.0641 33.0156 27.3117 33.0437 27.4469 33.2116ZM20.6734 35.8257C20.6734 35.6114 20.8496 35.4378 21.0671 35.4378H22.2597C22.4771 35.4378 22.6534 35.6114 22.6534 35.8257C22.6534 36.0399 22.4771 36.2136 22.2597 36.2136H21.0671C20.8496 36.2136 20.6734 36.0399 20.6734 35.8257ZM25.2269 35.8257C25.2269 35.6114 25.4031 35.4378 25.6206 35.4378H27.1384C27.3559 35.4378 27.5322 35.6114 27.5322 35.8257C27.5322 36.0399 27.3559 36.2136 27.1384 36.2136H25.6206C25.4031 36.2136 25.2269 36.0399 25.2269 35.8257Z" fill="#FFEBB7"/>
</svg>
