<svg width="48" height="48" viewBox="0 0 48 48" fill="none" xmlns="http://www.w3.org/2000/svg">
<path fill-rule="evenodd" clip-rule="evenodd" d="M2.86237 47.1376V0.862365H27.8682V10.3473H19.2743C18.9409 10.3473 18.6706 10.6176 18.6706 10.9509V18.3952H11.8012C11.4679 18.3952 11.1976 18.6654 11.1976 18.9988V27.2766C11.1976 27.61 11.4679 27.8803 11.8012 27.8803H18.6706V34.7497C18.6706 35.083 18.9409 35.3533 19.2743 35.3533H27.8682V47.1376H2.86237ZM2.60366 0C2.27026 0 2 0.270271 2 0.603657V47.3963C2 47.7297 2.27027 48 2.60366 48H28.1269C28.4603 48 28.7306 47.7297 28.7306 47.3963V35.0946C28.7306 34.7612 28.4603 34.4909 28.1269 34.4909H19.533V27.6216C19.533 27.2882 19.2627 27.0179 18.9293 27.0179H12.06V19.2575H18.9293C19.2627 19.2575 19.533 18.9873 19.533 18.6539V11.2097H28.1269C28.4603 11.2097 28.7306 10.9394 28.7306 10.606V0.603656C28.7306 0.270266 28.4603 0 28.1269 0H2.60366ZM40.223 10.606V0.862365H44.5343V47.1376H40.223V35.0946C40.223 34.7612 39.9528 34.4909 39.6194 34.4909H31.0254V27.6216C31.0254 27.2882 30.7552 27.0179 30.4218 27.0179H23.5524V19.2575H30.4218C30.7552 19.2575 31.0254 18.9873 31.0254 18.6539V11.2097H39.6194C39.9528 11.2097 40.223 10.9394 40.223 10.606ZM39.9643 0C39.6309 0 39.3607 0.270266 39.3607 0.603656V10.3473H30.7667C30.4333 10.3473 30.1631 10.6176 30.1631 10.9509V18.3952H23.2937C22.9603 18.3952 22.69 18.6654 22.69 18.9988V27.2766C22.69 27.61 22.9603 27.8803 23.2937 27.8803H30.1631V34.7497C30.1631 35.083 30.4333 35.3533 30.7667 35.3533H39.3607V47.3963C39.3607 47.7297 39.6309 48 39.9643 48H44.793C45.1264 48 45.3967 47.7297 45.3967 47.3963V0.603657C45.3967 0.270271 45.1264 0 44.793 0H39.9643Z" fill="#FFEBB7"/>
</svg>
