<svg width="64" height="64" viewBox="0 0 64 64" fill="none" xmlns="http://www.w3.org/2000/svg">
<path fill-rule="evenodd" clip-rule="evenodd" d="M1 13.5C1 12.6716 1.67157 12 2.5 12H39.7801C40.6086 12 41.2801 12.6716 41.2801 13.5V15.8136H46.3029C48.0253 15.8136 49.6482 16.6204 50.6878 17.9936L58.1914 27.9039C58.8668 28.7959 59.7475 29.5118 60.7587 29.9908L61.106 30.1553C62.2539 30.6991 63.2219 31.5606 63.8951 32.6377L63.4711 32.9027H63.9711V38.9091V44.3021C63.9711 44.7967 63.8321 45.2813 63.57 45.7007C63.0878 46.4723 62.2421 46.941 61.3322 46.941H57.3741C56.7826 50.0894 54.0189 52.4715 50.6987 52.4715C47.3785 52.4715 44.6147 50.0894 44.0232 46.941H40.7801H19.9991C19.4076 50.0894 16.6439 52.4715 13.3237 52.4715C10.0035 52.4715 7.23975 50.0894 6.64825 46.941H2.5C1.67157 46.941 1 46.2694 1 45.441V16.3136V13.5ZM43.9112 45.941C43.9079 45.8541 43.9062 45.7668 43.9062 45.6791C43.9062 41.9277 46.9473 38.8866 50.6987 38.8866C54.4501 38.8866 57.4911 41.9277 57.4911 45.6791C57.4911 45.7668 57.4895 45.8541 57.4862 45.941H61.3322C61.8973 45.941 62.4225 45.6499 62.722 45.1707C62.8848 44.9103 62.9711 44.6093 62.9711 44.3021V38.9091V33.4027H58.5134C58.2373 33.4027 58.0134 33.1789 58.0134 32.9027C58.0134 32.6266 58.2373 32.4027 58.5134 32.4027H62.4734C61.973 31.8416 61.3632 31.3837 60.6779 31.0591L60.3306 30.8946C59.174 30.3467 58.1667 29.5278 57.3941 28.5075L49.8906 18.5972C49.0399 17.4737 47.7121 16.8136 46.3029 16.8136H41.2801V19.2458H46.0023C46.4729 19.2458 46.9163 19.4667 47.1998 19.8425L53.8902 28.7112C54.6358 29.6995 53.9308 31.1146 52.6928 31.1146H44.0217C43.7456 31.1146 43.5217 30.8907 43.5217 30.6146C43.5217 30.3384 43.7456 30.1146 44.0217 30.1146H52.6928C53.1054 30.1146 53.3405 29.6429 53.0919 29.3135L46.4015 20.4447C46.307 20.3195 46.1592 20.2458 46.0023 20.2458H41.2801V45.941H43.9112ZM40.2801 45.941H20.1112C20.1145 45.8541 20.1161 45.7668 20.1161 45.6791C20.1161 41.9277 17.0751 38.8866 13.3237 38.8866C9.57233 38.8866 6.53125 41.9277 6.53125 45.6791C6.53125 45.7668 6.53291 45.8541 6.53621 45.941H2.5C2.22386 45.941 2 45.7171 2 45.441V16.3136V13.5C2 13.2239 2.22386 13 2.5 13H39.7801C40.0563 13 40.2801 13.2239 40.2801 13.5V16.3136V19.7458V45.941ZM13.3237 39.8866C10.1246 39.8866 7.53125 42.48 7.53125 45.6791C7.53125 48.8781 10.1246 51.4715 13.3237 51.4715C16.5228 51.4715 19.1161 48.8781 19.1161 45.6791C19.1161 42.48 16.5228 39.8866 13.3237 39.8866ZM44.9062 45.6791C44.9062 42.48 47.4996 39.8866 50.6987 39.8866C53.8978 39.8866 56.4911 42.48 56.4911 45.6791C56.4911 48.8781 53.8978 51.4715 50.6987 51.4715C47.4996 51.4715 44.9062 48.8781 44.9062 45.6791Z" fill="#31912D"/>
<path fill-rule="evenodd" clip-rule="evenodd" d="M50.7969 42.6992C49.14 42.6992 47.7969 44.0424 47.7969 45.6992C47.7969 47.3561 49.14 48.6992 50.7969 48.6992C52.4537 48.6992 53.7969 47.3561 53.7969 45.6992C53.7969 44.0424 52.4537 42.6992 50.7969 42.6992ZM46.7969 45.6992C46.7969 43.4901 48.5877 41.6992 50.7969 41.6992C53.006 41.6992 54.7969 43.4901 54.7969 45.6992C54.7969 47.9084 53.006 49.6992 50.7969 49.6992C48.5877 49.6992 46.7969 47.9084 46.7969 45.6992Z" fill="#31912D"/>
<path fill-rule="evenodd" clip-rule="evenodd" d="M13.2969 42.6992C11.64 42.6992 10.2969 44.0424 10.2969 45.6992C10.2969 47.3561 11.64 48.6992 13.2969 48.6992C14.9537 48.6992 16.2969 47.3561 16.2969 45.6992C16.2969 44.0424 14.9537 42.6992 13.2969 42.6992ZM9.29688 45.6992C9.29688 43.4901 11.0877 41.6992 13.2969 41.6992C15.506 41.6992 17.2969 43.4901 17.2969 45.6992C17.2969 47.9084 15.506 49.6992 13.2969 49.6992C11.0877 49.6992 9.29688 47.9084 9.29688 45.6992Z" fill="#31912D"/>
</svg>
