<svg width="60" height="60" viewBox="0 0 60 60" fill="none" xmlns="http://www.w3.org/2000/svg">
<path fill-rule="evenodd" clip-rule="evenodd" d="M17.4602 27.0792C11.4237 17.5367 18.2803 5.08594 29.5719 5.08594C40.7998 5.08594 47.6671 17.4115 41.7587 26.9592L29.7054 46.4364L17.4602 27.0792ZM29.5719 4.08594C17.4924 4.08594 10.1573 17.4055 16.6151 27.6138L29.2875 47.6463L29.7147 48.3217L30.1352 47.6422L42.609 27.4854C48.9297 17.2716 41.5833 4.08594 29.5719 4.08594ZM9.11287 38.0859H8.76824L8.6456 38.408L2.17221 55.408L1.91406 56.0859H2.63948H56.1921H56.9175L56.6594 55.408L50.186 38.408L50.0633 38.0859H49.7187H40.8913C40.6152 38.0859 40.3913 38.3098 40.3913 38.5859C40.3913 38.8621 40.6152 39.0859 40.8913 39.0859H49.3741L55.4667 55.0859H3.36489L9.4575 39.0859H19.1172C19.3933 39.0859 19.6172 38.8621 19.6172 38.5859C19.6172 38.3098 19.3933 38.0859 19.1172 38.0859H9.11287ZM34.5811 18.655C34.5811 21.3366 32.3978 23.5171 29.6962 23.5171C26.9947 23.5171 24.8113 21.3366 24.8113 18.655C24.8113 15.9734 26.9947 13.7929 29.6962 13.7929C32.3978 13.7929 34.5811 15.9734 34.5811 18.655ZM35.5811 18.655C35.5811 21.8925 32.9464 24.5171 29.6962 24.5171C26.4461 24.5171 23.8113 21.8925 23.8113 18.655C23.8113 15.4175 26.4461 12.7929 29.6962 12.7929C32.9464 12.7929 35.5811 15.4175 35.5811 18.655Z" fill="#31912D"/>
</svg>
