<svg width="60" height="60" viewBox="0 0 60 60" fill="none" xmlns="http://www.w3.org/2000/svg">
<path fill-rule="evenodd" clip-rule="evenodd" d="M4.66406 56.5476V2.88672H33.6609V13.8854H23.6953C23.3087 13.8854 22.9953 14.1988 22.9953 14.5854V23.2178H15.0296C14.643 23.2178 14.3296 23.5312 14.3296 23.9178V33.5167C14.3296 33.9033 14.643 34.2167 15.0296 34.2167H22.9953V42.1825C22.9953 42.5691 23.3087 42.8825 23.6953 42.8825H33.6609V56.5476H4.66406ZM4.36406 1.88672C3.97746 1.88672 3.66406 2.20013 3.66406 2.58672V56.8476C3.66406 57.2342 3.97746 57.5476 4.36406 57.5476H33.9609C34.3475 57.5476 34.6609 57.2342 34.6609 56.8476V42.5825C34.6609 42.1959 34.3475 41.8825 33.9609 41.8825H23.9953V33.9167C23.9953 33.5301 23.6819 33.2167 23.2953 33.2167H15.3296V24.2178H23.2953C23.6819 24.2178 23.9953 23.9044 23.9953 23.5178V14.8854H33.9609C34.3475 14.8854 34.6609 14.572 34.6609 14.1854V2.58672C34.6609 2.20012 34.3475 1.88672 33.9609 1.88672H4.36406ZM47.9875 14.1854V2.88672H52.9869V56.5476H47.9875V42.5825C47.9875 42.1959 47.6741 41.8825 47.2875 41.8825H37.322V33.9167C37.322 33.5301 37.0086 33.2167 36.622 33.2167H28.6562V24.2178H36.622C37.0086 24.2178 37.322 23.9044 37.322 23.5178V14.8854H47.2875C47.6741 14.8854 47.9875 14.572 47.9875 14.1854ZM47.6875 1.88672C47.3009 1.88672 46.9875 2.20012 46.9875 2.58672V13.8854H37.022C36.6354 13.8854 36.322 14.1988 36.322 14.5854V23.2178H28.3563C27.9697 23.2178 27.6562 23.5312 27.6562 23.9178V33.5167C27.6562 33.9033 27.9697 34.2167 28.3563 34.2167H36.322V42.1825C36.322 42.5691 36.6354 42.8825 37.022 42.8825H46.9875V56.8476C46.9875 57.2342 47.3009 57.5476 47.6875 57.5476H53.2869C53.6735 57.5476 53.9869 57.2342 53.9869 56.8476V2.58672C53.9869 2.20013 53.6735 1.88672 53.2869 1.88672H47.6875Z" fill="#31912D"/>
</svg>
