<svg width="60" height="60" viewBox="0 0 60 60" fill="none" xmlns="http://www.w3.org/2000/svg">
<path fill-rule="evenodd" clip-rule="evenodd" d="M5.17188 11.286C5.17188 6.80254 8.80644 3.16797 13.2899 3.16797C13.4104 3.16797 13.5081 3.26565 13.5081 3.38614V40.632L13.0676 40.4364C10.0709 39.1057 6.78358 40.2989 5.17188 42.7903V11.286ZM5.17188 46.9085V46.0097C5.32169 42.2482 9.21941 39.8218 12.6618 41.3503L13.6346 41.7823C14.0454 41.9647 14.5081 41.664 14.5081 41.2144V11.4186H49.7672V53.4085H11.6719C8.08203 53.4085 5.17188 50.4983 5.17188 46.9085ZM14.5081 3.38614V10.4186H50.2672H50.6097C53.0949 10.4186 55.1097 12.4333 55.1097 14.9186V49.9085C55.1097 52.3938 53.0949 54.4085 50.6097 54.4085H50.2672H11.6719C7.52974 54.4085 4.17188 51.0506 4.17188 46.9085V11.286C4.17188 6.25025 8.25415 2.16797 13.2899 2.16797C13.9627 2.16797 14.5081 2.71336 14.5081 3.38614ZM50.7672 53.405V11.422C52.6271 11.5045 54.1097 13.0384 54.1097 14.9186V49.9085C54.1097 51.7887 52.6271 53.3226 50.7672 53.405ZM31.5734 15.749L31.2361 15.4603L30.9095 15.7611L16.0597 29.4398L15.1176 30.3075H16.3984H20.2409V47.3943V47.8943H20.7409H26.1689H31.5969H37.0249H42.4529H42.9529V47.3943V30.3075H47.2296H48.5827L47.5547 29.4277L31.5734 15.749ZM17.6792 29.3075L31.2604 16.7975L45.8765 29.3075H42.4529H41.9529V29.8075V46.8943H37.5249V35.5V35H37.0249H26.1689H25.6689V35.5V46.8943H21.2409V29.8075V29.3075H20.7409H17.6792ZM36.5249 36V46.8943H31.5969H26.6689V36H36.5249Z" fill="#31912D"/>
</svg>
