<svg width="60" height="60" viewBox="0 0 60 60" fill="none" xmlns="http://www.w3.org/2000/svg">
<path fill-rule="evenodd" clip-rule="evenodd" d="M55.9952 30C55.9984 29.8337 56 29.667 56 29.5C56 29.333 55.9984 29.1663 55.9952 29C55.732 15.3138 44.6862 4.26801 31 4.0048C30.8337 4.00161 30.667 4 30.5 4C30.333 4 30.1663 4.00161 30 4.0048C16.3138 4.26801 5.26801 15.3138 5.0048 29C5.00161 29.1663 5 29.333 5 29.5C5 29.667 5.00161 29.8337 5.0048 30C5.26801 43.6862 16.3138 54.732 30 54.9952C30.1663 54.9984 30.333 55 30.5 55C30.667 55 30.8337 54.9984 31 54.9952C44.6862 54.732 55.732 43.6862 55.9952 30ZM31 53.995C44.1339 53.7321 54.7321 43.1339 54.995 30H52C51.7239 30 51.5 29.7761 51.5 29.5C51.5 29.2239 51.7239 29 52 29H54.995C54.7321 15.8661 44.1339 5.26792 31 5.005V8C31 8.27614 30.7761 8.5 30.5 8.5C30.2239 8.5 30 8.27614 30 8V5.005C16.8661 5.26792 6.26792 15.8661 6.005 29H8.5C8.77614 29 9 29.2239 9 29.5C9 29.7761 8.77614 30 8.5 30H6.005C6.26792 43.1339 16.8661 53.7321 30 53.995V51.5C30 51.2239 30.2239 51 30.5 51C30.7761 51 31 51.2239 31 51.5V53.995ZM30 29.6288V11C30 10.7239 30.2239 10.5 30.5 10.5C30.7761 10.5 31 10.7239 31 11V29.3712L38.9378 43.7585C39.0712 44.0002 38.9833 44.3044 38.7415 44.4378C38.4998 44.5712 38.1956 44.4833 38.0622 44.2415L30 29.6288Z" fill="#31912D"/>
</svg>
