<svg width="60" height="60" viewBox="0 0 60 60" fill="none" xmlns="http://www.w3.org/2000/svg">
<path fill-rule="evenodd" clip-rule="evenodd" d="M25.958 2.5C25.8823 2.5 25.8121 2.5394 25.7726 2.60399L17.0184 16.9434C15.8617 18.8381 14.387 20.5191 12.659 21.9125C8.76424 25.0532 6.5 29.7878 6.5 34.7912V47.8084C6.5 53.1609 10.8391 57.5 16.1916 57.5H44.1902C46.1409 57.5 47.7222 55.9187 47.7222 53.968C47.7222 52.0173 46.1409 50.436 44.1902 50.436H34.6684C34.2686 50.436 33.9444 50.1119 33.9444 49.712C33.9444 49.3121 34.2686 48.988 34.6684 48.988H47.7458C49.6964 48.988 51.2778 47.4067 51.2778 45.456C51.2778 43.5053 49.6964 41.924 47.7458 41.924H37.3351C36.9353 41.924 36.6111 41.5999 36.6111 41.2C36.6111 40.8001 36.9353 40.476 37.3351 40.476H49.744C51.8184 40.476 53.5 38.7944 53.5 36.72C53.5 34.6456 51.8184 32.964 49.744 32.964H37.3351C36.9353 32.964 36.6111 32.6399 36.6111 32.24C36.6111 31.8401 36.9353 31.516 37.3351 31.516H47.0738C49.3956 31.516 51.2778 29.6338 51.2778 27.312C51.2778 24.9902 49.3956 23.108 47.0738 23.108H28.107C27.1675 23.108 26.5106 22.1784 26.8244 21.2928L28.3927 16.8665C28.5485 16.4268 28.6696 15.9757 28.7549 15.5171L30.2219 7.63024C30.7181 4.96291 28.671 2.5 25.958 2.5ZM24.9191 2.08292C25.1402 1.72086 25.5338 1.5 25.958 1.5C29.2966 1.5 31.8156 4.53078 31.205 7.81312L29.738 15.7C29.6431 16.2099 29.5085 16.7116 29.3353 17.2005L27.767 21.6268C27.6838 21.8616 27.858 22.108 28.107 22.108H47.0738C49.9479 22.108 52.2778 24.4379 52.2778 27.312C52.2778 29.3465 51.1103 31.1083 49.4088 31.964H49.744C52.3707 31.964 54.5 34.0933 54.5 36.72C54.5 39.2911 52.4598 41.3857 49.91 41.4732C51.3205 42.2413 52.2778 43.7368 52.2778 45.456C52.2778 47.959 50.2487 49.988 47.7458 49.988H46.3596C47.7673 50.7569 48.7222 52.251 48.7222 53.968C48.7222 56.471 46.6932 58.5 44.1902 58.5H16.1916C10.2868 58.5 5.5 53.7132 5.5 47.8084V34.7912C5.5 29.4854 7.9011 24.4646 12.0313 21.1341C13.6698 19.8128 15.0681 18.2189 16.1649 16.4224L24.9191 2.08292Z" fill="#31912D"/>
</svg>
