<svg width="60" height="60" viewBox="0 0 60 60" fill="none" xmlns="http://www.w3.org/2000/svg">
<path fill-rule="evenodd" clip-rule="evenodd" d="M14.0964 4.5C12.7157 4.5 11.5964 5.61929 11.5964 7V19.9C11.5964 20.1761 11.3725 20.4 11.0964 20.4C10.8202 20.4 10.5964 20.1761 10.5964 19.9V13.775H5C4.17157 13.775 3.5 14.4466 3.5 15.275V55C3.5 55.8284 4.17157 56.5 5 56.5H54.9759C55.8043 56.5 56.4759 55.8284 56.4759 55V45.575H51.1495C48.1292 45.575 45.6807 43.1266 45.6807 40.1063C45.6807 37.0859 48.1292 34.6375 51.1495 34.6375H56.4759V24.55C56.4759 23.7216 55.8043 23.05 54.9759 23.05H9.07229C8.79615 23.05 8.57229 22.8261 8.57229 22.55C8.57229 22.2739 8.79615 22.05 9.07229 22.05H54.9759C56.3566 22.05 57.4759 23.1693 57.4759 24.55V34.6375H58.5C59.0523 34.6375 59.5 35.0852 59.5 35.6375V44.575C59.5 45.1273 59.0523 45.575 58.5 45.575H57.4759V55C57.4759 56.3807 56.3566 57.5 54.9759 57.5H5C3.61928 57.5 2.5 56.3807 2.5 55V15.275C2.5 13.8943 3.61929 12.775 5 12.775H10.5964V7C10.5964 5.06701 12.1634 3.5 14.0964 3.5H45.8795C47.8125 3.5 49.3795 5.067 49.3795 7V12.775H56.9759C57.252 12.775 57.4759 12.9989 57.4759 13.275C57.4759 13.5511 57.252 13.775 56.9759 13.775H49.3795V19.9C49.3795 20.1761 49.1557 20.4 48.8795 20.4C48.6034 20.4 48.3795 20.1761 48.3795 19.9V7C48.3795 5.61929 47.2602 4.5 45.8795 4.5H14.0964ZM51.1495 35.6375C48.6814 35.6375 46.6807 37.6382 46.6807 40.1063C46.6807 42.5743 48.6814 44.575 51.1495 44.575H58.5L58.5 35.6375H51.1495Z" fill="#31912D"/>
</svg>
