<svg width="59" height="59" viewBox="0 0 59 59" fill="none" xmlns="http://www.w3.org/2000/svg">
<path fill-rule="evenodd" clip-rule="evenodd" d="M20.6033 0.5H37.5743V27.0805H33.9946V31.9195H48.989L58.7173 58.5H0.300781L9.45684 31.9195H24.4584V27.0805H20.6033V0.5ZM25.4584 27.0805V29H32.9946V27.0805H25.4584ZM32.9946 30H25.4584V32.2384L29.3516 36.9067L32.9946 32.2473V30ZM33.7384 32.9195L29.8642 37.8747V44.9878H37.0743C37.3505 44.9878 37.5743 45.2117 37.5743 45.4878C37.5743 45.7639 37.3505 45.9878 37.0743 45.9878H14.3199L12.6812 51.661H46.5501L41.5607 37.8726C41.4667 37.6129 41.601 37.3262 41.8607 37.2323C42.1204 37.1383 42.407 37.2726 42.501 37.5323L47.9754 52.661H11.3515L13.5679 44.9878H28.8642V37.8836L24.7243 32.9195H10.17L1.70291 57.5H57.2864L48.2901 32.9195H33.7384ZM21.6033 1.5V26.0805H36.5743V1.5H21.6033ZM24.5398 40.7655C24.6908 40.5344 25.0007 40.4694 25.2319 40.6204L27.5724 42.1497C27.8036 42.3008 27.8686 42.6106 27.7175 42.8418C27.5665 43.073 27.2566 43.1379 27.0255 42.9869L24.6849 41.4576C24.4537 41.3066 24.3888 40.9967 24.5398 40.7655ZM33.8863 40.7283C34.0579 40.9446 34.0217 41.2591 33.8054 41.4307L31.8778 42.96C31.6615 43.1316 31.347 43.0954 31.1754 42.8791C31.0037 42.6627 31.04 42.3482 31.2563 42.1766L33.1838 40.6473C33.4002 40.4757 33.7147 40.5119 33.8863 40.7283ZM25.2845 44.0976C25.2845 43.8214 25.5083 43.5976 25.7845 43.5976H27.2989C27.5751 43.5976 27.7989 43.8214 27.7989 44.0976C27.7989 44.3737 27.5751 44.5976 27.2989 44.5976H25.7845C25.5083 44.5976 25.2845 44.3737 25.2845 44.0976ZM31.0671 44.0976C31.0671 43.8214 31.2909 43.5976 31.5671 43.5976H33.4946C33.7707 43.5976 33.9946 43.8214 33.9946 44.0976C33.9946 44.3737 33.7707 44.5976 33.4946 44.5976H31.5671C31.2909 44.5976 31.0671 44.3737 31.0671 44.0976Z" fill="#31912D"/>
</svg>
